<?xml version="1.0" standalone="yes"?>
<svg width="750" height="325">
<path style="fill:#fefeff; stroke:none;" d="M0 0L0 325L750 325L750 0L0 0z"/>
<path style="fill:#67b0db; stroke:none;" d="M41 57C38.2608 52.0746 39 46.4811 39 41L214 41C210.567 39.0218 205.016 40 201 40L172 40L79 40L52 40C48.5854 40 43.296 39.0024 40.1111 40.3333C35.981 42.0591 36.7333 56.0857 41 57z"/>
<path style="fill:#0179c1; stroke:none;" d="M239 40L239 214L298 214L298 88C305.975 88 315.461 86.4256 321.812 92.3403C334.813 104.448 320.728 118.885 307 119L307 163C325.82 163 347.837 164.782 364 153.211C393.409 132.158 393.612 78.2096 365.999 55.4645C347.737 40.4212 324.453 40 302 40L239 40z"/>
<path style="fill:#67b0db; stroke:none;" d="M325 40C326.769 40.7789 328.036 40.9124 330 41C328.231 40.2211 326.964 40.0876 325 40M393 40L393 100C395.314 95.997 394 89.6241 394 85L394 55C394 50.1913 394.875 44.4688 393 40z"/>
<path style="fill:#0179c1; stroke:none;" d="M394 40L394 98C399.944 92.2407 403.83 83.9142 408.344 77C416.311 64.7962 424.91 52.7348 432 40L394 40M507 40L507 87C512.429 83.8078 515.571 77.1433 519 72C525.983 61.5265 534.605 51.4037 540 40L507 40z"/>
<path style="fill:#67b0db; stroke:none;" d="M540 40L541 41L540 40M611 40L611 214C612.661 210.041 612 205.26 612 201L612 175L612 84L612 55C612 50.1914 612.875 44.4686 611 40z"/>
<path style="fill:#0179c1; stroke:none;" d="M612 40L612 214L675 214L675 40L612 40M39 41L39 56C57.3237 56 74.9853 54.3455 93 59.4283C160.891 78.5834 206 143.468 206 213L214 213L214 41L39 41z"/>
<path style="fill:#67b0db; stroke:none;" d="M333.667 41.3333C333.222 41.7777 334.278 41.7222 334.333 41.6667C334.778 41.2222 333.722 41.2778 333.667 41.3333M539 41L540 42L539 41M338.667 42.3333C338.222 42.7777 339.278 42.7223 339.333 42.6667C339.778 42.2222 338.722 42.2778 338.667 42.3333M430 42L431 43L430 42M342.667 43.3333C342.222 43.7777 343.278 43.7222 343.333 43.6667C343.778 43.2222 342.722 43.2779 342.667 43.3333M346 44L347 45L346 44M537 44L538 45L537 44M348 45L349 46L348 45M428 45L429 46L428 45M351 46L352 47L351 46M353 47L354 48L353 47M427 47L428 48L427 47M535 47L536 48L535 47M355 48L356 49L355 48M426 48L427 49L426 48M357 49L358 50L357 49M425 50L426 51L425 50M533 50L534 51L533 50M360 51L361 52L360 51M363 53L364 54L363 53M423 53L424 54L423 53M531 53L532 54L531 53M364 54L365 55L364 54M50 55C54.7238 56.9822 60.9098 56 66 56C61.2762 54.0178 55.0902 55 50 55M75 56C76.506 56.683 77.3148 56.8259 79 57C77.4939 56.317 76.6852 56.1741 75 56M421 56L422 57L421 56M529 56L530 57L529 56M88.6667 58.3333C88.2223 58.7777 89.2778 58.7222 89.3333 58.6667C89.7778 58.2223 88.7223 58.2777 88.6667 58.3333M92.6667 59.3333C92.2223 59.7776 93.2777 59.7223 93.3333 59.6667C93.7778 59.2222 92.7222 59.2778 92.6667 59.3333M419 59L420 60L419 59M527 59L528 60L527 59M96 60L97 61L96 60M50.6667 61.3333C50.2222 61.7778 51.2778 61.7222 51.3333 61.6667C51.7778 61.2222 50.7222 61.2778 50.6667 61.3333z"/>
<path style="fill:#0179c1; stroke:none;" d="M39 63L39 69C44.3937 66.4818 49.2314 63.6726 55 62C50.2256 60.5314 43.9413 62.3755 39 63z"/>
<path style="fill:#67b0db; stroke:none;" d="M55.6667 61.3333C55.2222 61.7778 56.2778 61.7222 56.3333 61.6667C56.7778 61.2222 55.7222 61.2778 55.6667 61.3333M99 61L100 62L99 61M418 61L419 62L418 61M41.6667 62.3333C41.2222 62.7777 42.2778 62.7222 42.3333 62.6667C42.7778 62.2222 41.7222 62.2778 41.6667 62.3333M53 62L54 63L53 62M67 62C68.2483 62.6848 68.5484 62.7488 70 63C68.7516 62.3152 68.4516 62.2512 67 62z"/>
<path style="fill:#0179c1; stroke:none;" d="M39 86C44.2877 86.4173 49.8428 86.7722 55 88C61.3599 78.574 69.2072 70.8836 76 62C66.6023 62.194 57.3267 64.9805 49 69.2593C46.0004 70.8007 41.9059 72.563 40.0278 75.5177C38.2358 78.3371 39 82.8089 39 86z"/>
<path style="fill:#67b0db; stroke:none;" d="M76 62L77 63L76 62M102 62L103 63L102 62M417 62L418 63L417 62M525 62L526 63L525 62M38 63L38 69C38.9511 66.7147 38.9511 65.2853 38 63M49.6667 63.3333C49.2222 63.7778 50.2778 63.7222 50.3333 63.6667C50.7778 63.2222 49.7222 63.2778 49.6667 63.3333M63.6667 63.3333C63.2222 63.7778 64.2778 63.7222 64.3333 63.6667C64.7777 63.2223 63.7223 63.2778 63.6667 63.3333M75 63L76 64L75 63M105 63L106 64L105 63M373 63L374 64L373 63M524 63L525 64L524 63M47 64L48 65L47 64M59.6667 64.3333C59.2223 64.7777 60.2778 64.7222 60.3333 64.6667C60.7777 64.2223 59.7222 64.2778 59.6667 64.3333M82 64L83 65L82 64z"/>
<path style="fill:#0179c1; stroke:none;" d="M61 88C72.6251 90.3981 84.2996 94.2785 96 96C95.664 88.1742 94.8082 79.3335 91.9306 72C90.8082 69.1396 89.1891 65.6305 85.9568 64.7083C82.6683 63.7701 79.3505 66.2309 77 68.2137C70.5908 73.6203 65.0697 80.6987 61 88z"/>
<path style="fill:#67b0db; stroke:none;" d="M87 64L88 65L87 64M108 64L109 65L108 64M374 64L375 65L374 64M416 64L417 65L416 64M45 65L46 66L45 65M56.6667 65.3333C56.2222 65.7778 57.2778 65.7222 57.3333 65.6667C57.7778 65.2222 56.7222 65.2778 56.6667 65.3333M80 65L81 66L80 65M88 65L89 66L88 65M110 65L111 66L110 65M523 65L524 66L523 65M43 66L44 67L43 66M54 66L55 67L54 66M71 66L72 67L71 66M89 66L90 67L89 66M95.3333 66.6667C95.2777 66.7223 95.2223 67.7777 95.6667 67.3333C95.7221 67.2779 95.7778 66.2221 95.3333 66.6667M113 66L114 67L113 66M375 66L376 67L375 66M522 66L523 67L522 66M52 67L53 68L52 67M70 67L71 68L70 67M77 67L78 68L77 67z"/>
<path style="fill:#0179c1; stroke:none;" d="M96 67C97.6084 74.0161 99.5473 80.8459 100.572 88C101.022 91.1416 100.169 95.791 102.028 98.5015C103.856 101.168 108.186 102.2 111 103.424C116.84 105.966 122.248 109.314 128 112C123.185 95.1557 112.764 74.2348 96 67z"/>
<path style="fill:#67b0db; stroke:none;" d="M97 67L98 68L97 67M115 67L116 68L115 67M376 67L377 68L376 67M414 67L415 68L414 67M40 68L41 69L40 68M50 68L51 69L50 68M69 68L70 69L69 68M76 68L77 69L76 68M90 68L91 69L90 68M99 68L100 69L99 68M117 68L118 69L117 68M521 68L522 69L521 68M48 69L49 70L48 69M68 69L69 70L68 69M75 69L76 70L75 69M96.3333 69.6667C96.2778 69.7222 96.2222 70.7778 96.6667 70.3333C96.7223 70.2777 96.7777 69.2223 96.3333 69.6667M101 69L102 70L101 69M119 69L120 70L119 69M377 69L378 70L377 69M520 69L521 70L520 69M46 70L47 71L46 70M67 70L68 71L67 70M74 70L75 71L74 70M91 70L92 71L91 70M102 70L103 71L102 70M121 70L122 71L121 70M412 70L413 71L412 70M73 71L74 72L73 71M123 71L124 72L123 71M378 71L379 72L378 71M43 72L44 73L43 72M72 72L73 73L72 72M97.3333 72.6667C97.2778 72.7222 97.2222 73.7778 97.6667 73.3333C97.7223 73.2777 97.7777 72.2223 97.3333 72.6667M125 72L126 73L125 72M518 72L519 73L518 72M71 73L72 74L71 73M92 73L93 74L92 73M106 73L107 74L106 73M379 73L380 74L379 73M410 73L411 74L410 73M40 74L41 75L40 74M64 74L65 75L64 74M107 74L108 75L107 74M113 74C113.545 75.6352 113.365 75.4549 115 76L115 74L113 74M128 74L129 75L128 74M63 75L64 76L63 75z"/>
<path style="fill:#0179c1; stroke:none;" d="M115 75C118.411 82.6656 124.139 89.2408 127.691 97C130.248 102.584 131.171 110.662 134.854 115.485C137.616 119.102 142.387 121.482 146 124.155C151.502 128.226 156.393 133.096 162 137C159.53 127.969 154.474 119.75 149.333 112C140.099 98.0812 129.337 83.9661 115 75z"/>
<path style="fill:#67b0db; stroke:none;" d="M130 75L131 76L130 75M380 75L381 76L380 75M516 75L517 76L516 75M38 76L38 87L44 87C42.2309 86.2211 40.9641 86.0876 39 86C38.9996 82.5856 39.3274 79.1633 38 76M93 76L94 77L93 76M98 76L99 77L98 76M117 76L118 77L117 76M408 76L409 77L408 76M68 77L69 78L68 77M118 77L119 78L118 77M133 77L134 78L133 77M381 77L382 78L381 77M61 78L62 79L61 78M67 78L68 79L67 78M135 78L136 79L135 78M407 78L408 79L407 78M514 78L515 79L514 78M60 79L61 80L60 79M66 79L67 80L66 79M111 79L112 80L111 79M117 79L118 80L117 79M121 79L122 80L121 79M136 79L137 80L136 79M406 79L407 80L406 79M112 80L113 81L112 80M118 80L119 81L118 80M122 80L123 81L122 80M382 80L383 81L382 80M59 81L60 82L59 81M94.3333 81.6667C94.2778 81.7222 94.2222 82.7778 94.6667 82.3333C94.7223 82.2777 94.7777 81.2223 94.3333 81.6667M99.3333 81.6667C99.2778 81.7222 99.2222 82.7778 99.6667 82.3333C99.7223 82.2777 99.7777 81.2223 99.3333 81.6667M123 81L124 82L123 81M139 81L140 82L139 81M405 81L406 82L405 81M512 81L513 82L512 81M58 82L59 83L58 82M64 82L65 83L64 82M124 82L125 83L124 82M63 83L64 84L63 83M114 83L115 84L114 83M120 83L121 84L120 83M142 83L143 84L142 83M383.333 83.6667C383.278 83.7223 383.222 84.7777 383.667 84.3333C383.722 84.2779 383.778 83.2222 383.333 83.6667M57 84L58 85L57 84M143 84L144 85L143 84M403 84L404 85L403 84M510 84L511 85L510 84M56 85L57 86L56 85M62 85L63 86L62 85M509 85L510 86L509 85M61 86L62 87L61 86M116 86L117 87L116 86M122 86L123 87L122 86M146 86L147 87L146 86M52.6667 87.3333C52.2223 87.7777 53.2777 87.7223 53.3333 87.6667C53.7778 87.2222 52.7222 87.2778 52.6667 87.3333M55 87L56 88L55 87M100 87L100 91C100.71 89.2405 100.71 88.7595 100 87M137 87C137.545 88.6352 137.365 88.4549 139 89C138.455 87.3649 138.635 87.545 137 87M147 87L148 88L147 87M384.333 87.6667C384.278 87.7223 384.222 88.7777 384.667 88.3333C384.722 88.2779 384.778 87.2221 384.333 87.6667M401 87L402 88L401 87M507.667 87.3333C507.222 87.7777 508.278 87.7223 508.333 87.6667C508.778 87.2221 507.722 87.2778 507.667 87.3333M61 88C62.2483 88.6848 62.5485 88.7488 64 89C62.7516 88.3152 62.4516 88.2512 61 88M117 88L118 89L117 88M123 88L124 89L123 88M148 88L149 89L148 88M298 88L298 214C301.306 206.121 299 193.534 299 185L299 120L299 99C299 95.2976 299.441 91.4346 298 88M315 88L316 89L315 88M66.6667 89.3333C66.2222 89.7778 67.2778 89.7222 67.3333 89.6667C67.7778 89.2222 66.7222 89.2778 66.6667 89.3333M95.3333 89.6667C95.2778 89.7222 95.2222 90.7778 95.6667 90.3333C95.7223 90.2777 95.7777 89.2223 95.3333 89.6667z"/>
<path style="fill:#0179c1; stroke:none;" d="M139 89C146.329 99.7182 154.756 109.326 160.741 121C164.957 129.224 166.736 139.285 171.688 147C181.082 161.638 193.836 174.469 198 192C200.542 183.732 194.271 169.868 191.413 162C181.591 134.964 164.759 103.887 139 89z"/>
<path style="fill:#67b0db; stroke:none;" d="M140 89L141 90L140 89M318 89L319 90L318 89M72.6667 90.3333C72.2222 90.7778 73.2777 90.7223 73.3333 90.6667C73.7778 90.2222 72.7222 90.2778 72.6667 90.3333M118 90L119 91L118 90M124 90L125 91L124 90M132 90L133 91L132 90M141 90L142 91L141 90M399 90L400 91L399 90M38 91L38 121C39.761 117.954 39.0161 114.498 39.0008 111L39 92L43 92C41.2309 91.2211 39.9641 91.0876 38 91M77 91L78 92L77 91M133 91L134 92L133 91M321 91L322 92L321 91z"/>
<path style="fill:#0179c1; stroke:none;" d="M39 92L39 119C44.4597 111.786 48.5098 101.383 52 93C47.6307 92.1888 43.4363 92.0005 39 92z"/>
<path style="fill:#67b0db; stroke:none;" d="M49 92C50.3765 92.9114 51.4399 93.4038 53 94C51.686 92.382 51.1228 92.3067 49 92M81 92L82 93L81 92M119 92L120 93L119 92M125 92L126 93L125 92M134 92L135 93L134 92M141 92L142 93L141 92M153 92L154 93L153 92M322 92L323 93L322 92M385 92L385 97C385.83 94.9695 385.83 94.0305 385 92M398 92L399 93L398 92M57 95L60 94C58.2337 93.5991 58.4426 93.7108 57 95M85 93L86 94L85 93M135 93L136 94L135 93M142 93L143 94L142 93M145 93L146 94L145 93M154 93L155 94L154 93M323 93L324 94L323 93M397 93L398 94L397 93M51 94L52 95L51 94z"/>
<path style="fill:#0179c1; stroke:none;" d="M41 128C58.2291 129.502 75.6667 136.676 92 142C95.0014 129.428 96 115.898 96 103C87.2483 100.975 78.7948 97.7538 70 95.7932C66.7834 95.0761 62.4576 93.3134 59.2099 94.6181C56.0107 95.9033 54.2808 100.161 52.7809 103C48.4774 111.146 44.4962 119.478 41 128z"/>
<path style="fill:#67b0db; stroke:none;" d="M64.6667 94.3333C64.2222 94.7778 65.2778 94.7222 65.3333 94.6667C65.7778 94.2222 64.7222 94.2778 64.6667 94.3333M88.6667 94.3333C88.2222 94.7778 89.2778 94.7222 89.3333 94.6667C89.7778 94.2222 88.7222 94.2778 88.6667 94.3333M126 94L127 95L126 94M143 94L144 95L143 94M146 94L147 95L146 94M155 94L156 95L155 94M68.6667 95.3333C68.2222 95.7778 69.2778 95.7222 69.3333 95.6667C69.7778 95.2222 68.7222 95.2778 68.6667 95.3333M92 95L93 96L92 95M147 95L148 96L147 95M156 95L157 96L156 95M396 95L397 96L396 95M50 96L51 97L50 96M56 96L57 97L56 96M73 96L74 97L73 96M95 96L96 97L95 96M121 96L122 97L121 96M127 96L128 97L127 96M148 96L149 97L148 96M157 96L158 97L157 96M325 96L326 97L325 96M76.6667 97.3333C76.2222 97.7778 77.2778 97.7222 77.3333 97.6667C77.7778 97.2222 76.7222 97.2778 76.6667 97.3333M138 97L139 98L138 97M158 97L159 98L158 97M49 98L50 99L49 98M55 98L56 99L55 98M80.6667 98.3333C80.2222 98.7778 81.2778 98.7222 81.3333 98.6667C81.7778 98.2222 80.7222 98.2778 80.6667 98.3333M122 98L123 99L122 98M128 98L129 99L128 98M139 98L140 99L139 98M146 98L147 99L146 98M159 98L160 99L159 98M84 99L85 100L84 99M101 99L102 100L101 99M140 99L141 100L140 99M147 99L148 100L147 99M160 99L161 100L160 99M326.333 99.6667C326.278 99.7224 326.222 100.778 326.667 100.333C326.722 100.278 326.778 99.2222 326.333 99.6667M48 100L49 101L48 100M87 100L88 101L87 100M104 100L105 101L104 100M123 100L124 101L123 100M161 100L162 101L161 100M53 101L54 102L53 101M90 101L91 102L90 101M106 101L107 102L106 101M162 101L163 102L162 101M93 102L94 103L93 102M108 102L109 103L108 102M124 102L125 103L124 102M142 102L143 103L142 102M149 102L150 103L149 102M163 102L164 103L163 102M52 103L53 104L52 103M96.3333 103.667C96.2778 103.722 96.2222 104.778 96.6667 104.333C96.7223 104.278 96.7777 103.222 96.3333 103.667M111 103L112 104L111 103M130 103L131 104L130 103M143 103L144 104L143 103M164 103L165 104L164 103z"/>
<path style="fill:#0179c1; stroke:none;" d="M101 104C101 116.597 100.305 129.594 98 142C110.438 146.054 121.968 151.991 134 157C134 147.438 133.823 138.42 132 129C131.347 125.626 131.294 121.217 129.142 118.39C127.022 115.606 123.031 114.269 120 112.753C113.75 109.628 107.466 106.653 101 104z"/>
<path style="fill:#67b0db; stroke:none;" d="M102 104L103 105L102 104M113 104L114 105L113 104M165 104L166 105L165 104M51 105L52 106L51 105M104 105L105 106L104 105M115 105L116 106L115 105M125 105L126 106L125 105M151 105L152 106L151 105M45 106L46 107L45 106M106 106L107 107L106 106M117 106L118 107L117 106M131 106L132 107L131 106M145 106L146 107L145 106M50 107L51 108L50 107M109 107L110 108L109 107M119 107L120 108L119 107M126 107L127 108L126 107M326 107L327 108L326 107M44 108L45 109L44 108M111 108L112 109L111 108M121 108L122 109L121 108M153 108L154 109L153 108M160 108L161 109L160 108M168 108L169 109L168 108M49 109L50 110L49 109M113 109L114 110L113 109M123 109L124 110L123 109M132 109L133 110L132 109M147 109L148 110L147 109M161 109L162 110L161 109M169 109L170 110L169 109M325 109L326 110L325 109M43 110L44 111L43 110M115 110L116 111L115 110M148 110L149 111L148 110M162 110L163 111L162 110M170 110L171 111L170 110M48 111L49 112L48 111M117 111L118 112L117 111M126 111L127 112L126 111M155 111L156 112L155 111M324 111L325 112L324 111M42 112L43 113L42 112M119 112L120 113L119 112M149 112L150 113L149 112M47 113L48 114L47 113M100 113L100 118C100.83 115.969 100.83 115.03 100 113M121 113L122 114L121 113M133 113L134 114L133 113M150 113L151 114L150 113M156 113L157 114L156 113M172 113L173 114L172 113M385 113L385 116C385.696 114.446 385.696 114.554 385 113M41 114L42 115L41 114M123 114L124 115L123 114M165 114L166 115L165 114M173 114L174 115L173 114M46 115L47 116L46 115M95 115L95 119C95.7102 117.241 95.7102 116.759 95 115M125 115L126 116L125 115M151 115L152 116L151 115M166 115L167 116L166 115M127 116L128 117L127 116M135 116L136 117L135 116M158 116L159 117L158 116M319 116L320 117L319 116M40 117L41 118L40 117M45 117L46 118L45 117M175 117L176 118L175 117M317 117L318 118L317 117M138 118L139 119L138 118M153 118L154 119L153 118M159 118L160 119L159 118M168 118L169 119L168 118M176 118L177 119L176 118M307 118C309.613 119.098 312.164 118.993 315 119C312.387 117.902 309.836 118.007 307 118M44 119L45 120L44 119M130.333 119.667C130.278 119.722 130.222 120.778 130.667 120.333C130.722 120.278 130.778 119.222 130.333 119.667M139 119L140 120L139 119M169 119L170 120L169 119M384 119L384 122C384.696 120.446 384.696 120.554 384 119M154 120L155 121L154 120M160 120L161 121L160 120M142 121L143 122L142 121M178 121L179 122L178 121M43 122L44 123L43 122M155 122L156 123L155 122M161 122L162 123L161 122M171 122L172 123L171 122z"/>
<path style="fill:#0179c1; stroke:none;" d="M136 123C137.739 131.966 138.965 140.913 139.83 150C140.189 153.769 138.909 159.149 141.028 162.482C143.29 166.041 148.621 168.222 152 170.59C158.906 175.429 165.109 181.203 172 186C171.766 174.664 171.283 157.879 165.157 148C158.957 138.002 145.858 129.139 136 123z"/>
<path style="fill:#67b0db; stroke:none;" d="M145 123L146 124L145 123M42 124L43 125L42 124M131 124L131 127C131.696 125.446 131.696 125.554 131 124M146 124L147 125L146 124M162 124L163 125L162 124M180 124L181 125L180 124M383 124L384 125L383 124M136.333 125.667C136.278 125.722 136.222 126.778 136.667 126.333C136.722 126.278 136.778 125.222 136.333 125.667M139 125L140 126L139 125M157 125L158 126L157 125M173 125L174 126L173 125M41 126L42 127L41 126M149 126L150 127L149 126M163 126L164 127L163 126M181 126L182 127L181 126M94.3333 127.667C94.2778 127.722 94.2222 128.778 94.6667 128.333C94.7223 128.278 94.7777 127.222 94.3333 127.667M99 127L99 132C99.8299 129.97 99.8299 129.03 99 127M142 127L143 128L142 127M150 127L151 128L150 127M158 127L159 128L158 127M182 127L183 128L182 127M382.333 127.667C382.278 127.722 382.222 128.778 382.667 128.333C382.722 128.278 382.778 127.222 382.333 127.667M43 128C44.2483 128.685 44.5485 128.749 46 129C44.7516 128.315 44.4516 128.251 43 128M143 128L144 129L143 128M151 128L152 129L151 128M175 128L176 129L175 128M48 129L49 130L48 129M132 129L132 132C132.696 130.446 132.696 130.554 132 129M164 129L165 130L164 129M183 129L184 130L183 129M137.333 130.667C137.278 130.722 137.222 131.778 137.667 131.333C137.722 131.278 137.778 130.222 137.333 130.667M146 130L147 131L146 130M381 130L382 131L381 130M57 131L58 132L57 131M147 131L148 132L147 131M155 131L156 132L155 131M165 131L166 132L165 131M177 131L178 132L177 131M184 131L185 132L184 131M61 132L62 133L61 132M93 132L93 135C93.6961 133.446 93.6961 133.554 93 132M156 132L157 133L156 132M160 132L161 133L160 132z"/>
<path style="fill:#0179c1; stroke:none;" d="M39 133L39 166C39 169.543 37.7193 176.306 40.0278 179.272C41.5632 181.246 44.7489 181.495 47 182.011C52.3423 183.236 57.6815 184.544 63 185.873C68.0291 187.131 72.9665 188.74 77.9961 189.981C79.9422 190.461 82.3126 191.138 83.8356 189.382C86.2243 186.628 86.4782 180.474 87.0802 177C88.8091 167.023 90.1532 156.942 92 147C76.1395 139.029 56.3016 136.355 39 133z"/>
<path style="fill:#67b0db; stroke:none;" d="M41.6667 133.333C41.2223 133.778 42.2777 133.722 42.3333 133.667C42.7778 133.222 41.7222 133.278 41.6667 133.333M64.6667 133.333C64.2222 133.778 65.2778 133.722 65.3333 133.667C65.7778 133.222 64.7222 133.278 64.6667 133.333M157 133L158 134L157 133M178 133L179 134L178 133M380 133L381 134L380 133M46 134L47 135L46 134M68 134L69 135L68 134M151 134L152 135L151 134M161 134L162 135L161 134M166 134L167 135L166 134M186 134L187 135L186 134M38 135L38 180C39.552 176.301 39 171.983 39 168L39 148C39 143.74 39.6611 138.959 38 135M51.6667 135.333C51.2222 135.778 52.2778 135.722 52.3333 135.667C52.7778 135.222 51.7222 135.278 51.6667 135.333M72 135L73 136L72 135M133 135L133 138C133.696 136.446 133.696 136.554 133 135M152 135L153 136L152 135M179 135L180 136L179 135M56.6667 136.333C56.2222 136.778 57.2778 136.722 57.3333 136.667C57.7778 136.222 56.7222 136.278 56.6667 136.333M75 136L76 137L75 136M153 136L154 137L153 136M162.333 136.667C162.278 136.722 162.222 137.778 162.667 137.333C162.722 137.278 162.778 136.222 162.333 136.667M167 136L168 137L167 136M187 136L188 137L187 136M60.6667 137.333C60.2223 137.778 61.2778 137.722 61.3333 137.667C61.7778 137.222 60.7222 137.278 60.6667 137.333M78 137L79 138L78 137M138 137L138 140C138.696 138.446 138.696 138.554 138 137M154 137L155 138L154 137M64.6667 138.333C64.2222 138.778 65.2778 138.722 65.3333 138.667C65.7778 138.222 64.7222 138.278 64.6667 138.333M81.6667 138.333C81.2222 138.778 82.2778 138.722 82.3333 138.667C82.7778 138.222 81.7222 138.278 81.6667 138.333M98.3333 138.667C98.2778 138.722 98.2222 139.778 98.6667 139.333C98.7223 139.278 98.7777 138.222 98.3333 138.667M181 138L182 139L181 138M188 138L189 139L188 138M377 138L378 139L377 138M68.6667 139.333C68.2222 139.778 69.2778 139.722 69.3333 139.667C69.7778 139.222 68.7222 139.278 68.6667 139.333M84 139L85 140L84 139M168 139L169 140L168 139M72 140L73 141L72 140M87 140L88 141L87 140M92.3333 140.667C92.2779 140.722 92.2222 141.778 92.6667 141.333C92.7223 141.278 92.7777 140.222 92.3333 140.667M182 140L183 141L182 140M189 140L190 141L189 140M376 140L377 141L376 140M76 141L77 142L76 141M90 141L91 142L90 141M375 141L376 142L375 141M79 142L80 143L79 142M99 142L100 143L99 142M160 142L161 143L160 142M169 142L170 143L169 142M183 142L184 143L183 142M190 142L191 143L190 142M444 142L445 143L444 142M545 142L546 143L545 142M82 143L83 144L82 143M102 143L103 144L102 143M161 143L162 144L161 143z"/>
<path style="fill:#0179c1; stroke:none;" d="M444 143C435.107 156.439 426.912 170.366 418.319 184C412.153 193.782 404.942 203.55 400 214L445 214L445 165C445 158.314 446.599 149.194 444 143M545 143C535.75 158.059 526.341 173.027 516.95 188C511.616 196.504 505.289 204.934 501 214L546 214L546 165C546 158.314 547.599 149.194 545 143z"/>
<path style="fill:#67b0db; stroke:none;" d="M85.6667 144.333C85.2222 144.778 86.2778 144.722 86.3333 144.667C86.7778 144.222 85.7222 144.278 85.6667 144.333M105 144L106 145L105 144M184 144L185 145L184 144M191 144L192 145L191 144M373 144L374 145L373 144M89 145L90 146L89 145M107 145L108 146L107 145M170 145L171 146L170 145M372 145L373 146L372 145M442 145L443 146L442 145M543 145L544 146L543 145M91 146L92 147L91 146M110 146L111 147L110 146M134 146L134 157C135.431 153.59 135.431 149.41 134 146M164 146L165 147L164 146M371 146L372 147L371 146M112 147L113 148L112 147M139 147L139 150C139.696 148.446 139.696 148.554 139 147M165 147L166 148L165 147M185 147L186 148L185 147M192 147L193 148L192 147M370 147L371 148L370 147M542 147L543 148L542 147M97 148C96.3562 150.106 96.0941 151.795 96 154C97.002 151.904 97.3406 150.299 97 148M115 148L116 149L115 148M369 148L370 149L369 148M440 148L441 149L440 148M91 149L91 152C91.6961 150.446 91.6961 150.554 91 149z"/>
<path style="fill:#0179c1; stroke:none;" d="M97 149C95.8226 163.795 91.8198 178.468 89 193C102.485 198.163 117.082 203.201 131 207C131.086 196.589 133.863 186.413 134.004 176C134.042 173.168 135.329 169.06 134.307 166.39C133.082 163.192 127.801 161.648 125 160.247C116.291 155.892 106.662 150.664 97 149z"/>
<path style="fill:#67b0db; stroke:none;" d="M100 149L101 150L100 149M117 149L118 150L117 149M173 149L174 150L173 149M186 149L187 150L186 149M193 149L194 150L193 149M368 149L369 150L368 149M102 150L103 151L102 150M119 150L120 151L119 150M166 150L167 151L166 150M174 150L175 151L174 150M367 150L368 151L367 150M439 150L440 151L439 150M540 150L541 151L540 150M105 151L106 152L105 151M175 151L176 152L175 151M187 151L188 152L187 151M194.333 151.667C194.278 151.722 194.222 152.778 194.667 152.333C194.722 152.278 194.778 151.222 194.333 151.667M366 151L367 152L366 151M107 152L108 153L107 152M124 152L125 153L124 152M110 153L111 154L110 153M126 153L127 154L126 153M167 153L168 154L167 153M363 153L364 154L363 153M437 153L438 154L437 153M538 153L539 154L538 153M112 154L113 155L112 154M128 154L129 155L128 154M188 154L189 155L188 154M195 154L196 155L195 154M130 155L131 156L130 155M178 155L179 156L178 155M360 155L361 156L360 155M537 155L538 156L537 155M117 156L118 157L117 156M132 156L133 157L132 156M189 156L190 157L189 156M358 156L359 157L358 156M435 156L436 157L435 156M536 156L537 157L536 156M90.3333 157.667C90.2778 157.722 90.2222 158.778 90.6667 158.333C90.7223 158.278 90.7777 157.222 90.3333 157.667M95.3333 157.667C95.2778 157.722 95.2222 158.778 95.6667 158.333C95.7223 158.278 95.7778 157.222 95.3333 157.667M119 157L120 158L119 157M168 157L169 158L168 157M173 157L173 159L175 159C174.455 157.365 174.635 157.545 173 157M196 157L197 158L196 157M356 157L357 158L356 157M121 158L122 159L121 158M353.667 158.333C353.222 158.778 354.278 158.722 354.333 158.667C354.778 158.222 353.722 158.278 353.667 158.333M434 158L435 159L434 158M535 158L536 159L535 158M123 159L124 160L123 159z"/>
<path style="fill:#0179c1; stroke:none;" d="M174 159C175.153 164.943 176.495 170.946 176.91 177C177.234 181.714 176.753 186.461 178.424 191C180.258 195.977 184.595 199.854 187.764 204C190.832 208.015 192.675 213.087 198 214C194.386 195.366 188.589 172.37 174 159z"/>
<path style="fill:#67b0db; stroke:none;" d="M181 159L182 160L181 159M190 159L191 160L190 159M351 159L352 160L351 159M125 160L126 161L125 160M197 160L198 161L197 160M347.667 160.333C347.222 160.778 348.278 160.722 348.333 160.667C348.778 160.222 347.722 160.278 347.667 160.333M127 161L128 162L127 161M169.333 161.667C169.278 161.722 169.222 162.778 169.667 162.333C169.722 162.278 169.778 161.222 169.333 161.667M174.333 161.667C174.278 161.722 174.222 162.778 174.667 162.333C174.722 162.278 174.778 161.222 174.333 161.667M176 161L177 162L176 161M191.333 161.667C191.278 161.722 191.222 162.778 191.667 162.333C191.722 162.278 191.778 161.222 191.333 161.667M343.667 161.333C343.222 161.778 344.278 161.722 344.333 161.667C344.778 161.222 343.722 161.278 343.667 161.333M432 161L433 162L432 161M533 161L534 162L533 161M129 162L130 163L129 162M177 162L178 163L177 162M183 162L184 163L183 162M332 162C334.613 163.098 337.164 162.993 340 163C337.387 161.902 334.835 162.007 332 162M89.3333 163.667C89.2778 163.722 89.2222 164.778 89.6667 164.333C89.7223 164.278 89.7777 163.222 89.3333 163.667M131 163L132 164L131 163M141 163L142 164L141 163M198 163L199 164L198 163M532 163L533 164L532 163M94.3333 164.667C94.2778 164.722 94.2222 165.778 94.6667 165.333C94.7223 165.278 94.7778 164.222 94.3333 164.667M133 164L134 165L133 164M178 164L179 165L178 164M192 164L193 165L192 164M430 164L431 165L430 164M531 164L532 165L531 164M144 165L145 166L144 165M179 165L180 166L179 165M185 165L186 166L185 165M170 166L170 170C170.71 168.24 170.71 167.759 170 166M175.333 166.667C175.278 166.722 175.222 167.778 175.667 167.333C175.722 167.278 175.778 166.222 175.333 166.667M199 166L200 167L199 166M429 166L430 167L429 166M530 166L531 167L530 166M147 167L148 168L147 167M180 167L181 168L180 167M193.333 167.667C193.278 167.722 193.222 168.778 193.667 168.333C193.722 168.278 193.778 167.222 193.333 167.667M149 168L150 169L149 168M187 168L188 169L187 168M88.3333 169.667C88.2778 169.722 88.2222 170.778 88.6667 170.333C88.7223 170.278 88.7778 169.222 88.3333 169.667M93.3333 169.667C93.2778 169.722 93.2222 170.778 93.6667 170.333C93.7223 170.278 93.7778 169.222 93.3333 169.667M134 169L134 176C135.059 173.466 135.059 171.534 134 169z"/>
<path style="fill:#0179c1; stroke:none;" d="M140 169C139.999 178.336 138.968 187.735 137.845 197C137.453 200.234 135.39 205.553 137.117 208.582C138.381 210.798 141.76 211.832 144 212.676C152.008 215.692 162.542 214 171 214C171.267 207.775 173.636 200.064 171.397 194C169.951 190.085 166.126 187.334 163 184.805C155.757 178.945 148.236 173.385 140 169z"/>
<path style="fill:#67b0db; stroke:none;" d="M141 169L142 170L141 169M150 169L151 170L150 169M200 169L201 170L200 169M427 169L428 170L427 169M528 169L529 170L528 169M142 170L143 171L142 170M182 170L183 171L182 170M188 170L189 171L188 170M144 171L145 172L144 171M153 171L154 172L153 171M194 171L195 172L194 171M527 171L528 172L527 171M183 172L184 173L183 172M189 172L190 173L189 172M425 172L426 173L425 172M526 172L527 173L526 172M147 173L148 174L147 173M156 173L157 174L156 173M176 173L176 177C176.71 175.24 176.71 174.759 176 173M201 173L202 174L201 173M87 174L87 177C87.6961 175.446 87.6961 175.554 87 174M92 174L92 177C92.6961 175.446 92.6961 175.554 92 174M157 174L158 175L157 174M190 174L191 175L190 174M195.333 174.667C195.278 174.722 195.222 175.778 195.667 175.333C195.722 175.278 195.778 174.222 195.333 174.667M424 174L425 175L424 174M525 174L526 175L525 174M139 175L139 180C139.83 177.969 139.83 177.03 139 175M150 175L151 176L150 175M185 175L186 176L185 175M160 176L161 177L160 176M171 176L171 180C171.71 178.241 171.71 177.759 171 176M153 177L154 178L153 177M161 177L162 178L161 177M186 177L187 178L186 177M422 177L423 178L422 177M523 177L524 178L523 177M154 178L155 179L154 178M196 178L197 179L196 178M202 178L203 179L202 178M187 179L188 180L187 179M522 179L523 180L522 179M39.6667 180.333C39.2222 180.778 40.2778 180.722 40.3333 180.667C40.7778 180.222 39.7222 180.278 39.6667 180.333M91 180L91 183C91.6961 181.446 91.6961 181.554 91 180M157 180L158 181L157 180M165 180L166 181L165 180M193 180L194 181L193 180M420 180L421 181L420 180M521 180L522 181L521 180M43.6667 181.333C43.2222 181.778 44.2778 181.722 44.3333 181.667C44.7778 181.222 43.7222 181.278 43.6667 181.333M158 181L159 182L158 181M166 181L167 182L166 181M188 181L189 182L188 181M48.6667 182.333C48.2222 182.778 49.2778 182.722 49.3333 182.667C49.7778 182.222 48.7222 182.278 48.6667 182.333M167 182L168 183L167 182M194 182L195 183L194 182M197 182L198 183L197 182M203 182L203 185C203.696 183.446 203.696 183.554 203 182M419 182L420 183L419 182M520 182L521 183L520 182M52 183L53 184L52 183M57 184L58 185L57 184M85 184L86 185L85 184M133 184L133 188C133.71 186.241 133.71 185.759 133 184M162 184L163 185L162 184M189 184L190 185L189 184M195 184L196 185L195 184M38 185L38 214C41.5191 205.614 35.3633 193.44 41 186C39.7516 185.315 39.4516 185.251 38 185M61 185L62 186L61 185M90 185L91 186L90 185M163 185L164 186L163 185M417 185L418 186L417 185M518 185L519 186L518 185z"/>
<path style="fill:#0179c1; stroke:none;" d="M39 186L39 214L79 214C79.775 208.245 81.4266 202.586 83 197C69.5649 191.857 53.3671 187.143 39 186z"/>
<path style="fill:#67b0db; stroke:none;" d="M43.6667 186.333C43.2222 186.778 44.2778 186.722 44.3333 186.667C44.7778 186.222 43.7222 186.278 43.6667 186.333M64.6667 186.333C64.2222 186.778 65.2778 186.722 65.3333 186.667C65.7778 186.222 64.7222 186.278 64.6667 186.333M190 186L191 187L190 186M196.333 186.667C196.278 186.722 196.222 187.778 196.667 187.333C196.722 187.278 196.778 186.222 196.333 186.667M198 186L198 189C198.696 187.446 198.696 187.554 198 186M48 187L49 188L48 187M68.6667 187.333C68.2222 187.778 69.2778 187.722 69.3333 187.667C69.7778 187.222 68.7222 187.278 68.6667 187.333M177 187L177 192C177.83 189.969 177.83 189.03 177 187M517 187L518 188L517 187M52 188L53 189L52 188M72 188L73 189L72 188M138 188L138 192C138.71 190.24 138.71 189.76 138 188M191 188L192 189L191 188M204 188L204 192C204.71 190.24 204.71 189.759 204 188M415 188L416 189L415 188M516 188L517 189L516 188M56.6667 189.333C56.2223 189.778 57.2778 189.722 57.3333 189.667C57.7778 189.222 56.7222 189.278 56.6667 189.333M76 189L77 190L76 189M84.3333 189.667C84.2778 189.722 84.2222 190.778 84.6667 190.333C84.7223 190.278 84.7777 189.222 84.3333 189.667M168 189L169 190L168 189M197 189L198 190L197 189M697 189C698.506 189.683 699.315 189.826 701 190C699.494 189.317 698.685 189.174 697 189M60.6667 190.333C60.2223 190.778 61.2778 190.722 61.3333 190.667C61.7778 190.222 60.7222 190.278 60.6667 190.333M79 190L80 191L79 190M89 190L90 191L89 190M169 190L170 191L169 190M414 190L415 191L414 190M515 190L516 191L515 190M694 190L695 191L694 190z"/>
<path style="fill:#0179c1; stroke:none;" d="M695.004 190.742C680.16 196.466 689.257 218.962 703.996 213.258C717.914 207.871 709.429 185.18 695.004 190.742z"/>
<path style="fill:#67b0db; stroke:none;" d="M703 190L704 191L703 190M64.6667 191.333C64.2222 191.778 65.2778 191.722 65.3333 191.667C65.7778 191.222 64.7222 191.278 64.6667 191.333M82.6667 191.333C82.2222 191.778 83.2778 191.722 83.3333 191.667C83.7777 191.222 82.7222 191.278 82.6667 191.333M132 191L132 197C132.951 194.715 132.951 193.285 132 191M170 191L171 192L170 191M192 191L193 192L192 191M199 191C198.776 192.684 198.782 193.313 199 195C199.71 193.24 199.71 192.759 199 191M692 191L693 192L692 191M698 191C699.248 191.685 699.549 191.749 701 192C699.752 191.315 699.452 191.251 698 191M68 192L69 193L68 192M171 192L172 193L171 192M178 192L179 193L178 192M691 192L692 193L691 192M695 192L696 193L695 192z"/>
<path style="fill:#fefeff; stroke:none;" d="M696.015 192.743C684.678 197.153 691.202 215.839 702.985 211.257C714.225 206.885 707.591 188.241 696.015 192.743z"/>
<path style="fill:#67b0db; stroke:none;" d="M703 192L704 193L703 192M707 192L708 193L707 192M71.6667 193.333C71.2222 193.778 72.2778 193.722 72.3333 193.667C72.7777 193.222 71.7222 193.278 71.6667 193.333M89 193L90 194L89 193M172 193L172 200C173.059 197.466 173.059 195.534 172 193M179 193L180 194L179 193M412 193L413 194L412 193M513 193L514 194L513 193M690 193L691 194L690 193M693 193L694 194L693 193M708 193L709 194L708 193M75 194L76 195L75 194M93 194L94 195L93 194M193 194L194 195L193 194M689 194L690 195L689 194M692 194L693 195L692 194M78.6667 195.333C78.2222 195.778 79.2778 195.722 79.3333 195.667C79.7777 195.222 78.7223 195.278 78.6667 195.333M96 195L97 196L96 195M512 195L513 196L512 195M691 195L692 196L691 195z"/>
<path style="fill:#0179c1; stroke:none;" d="M695 195L695 209L697 209L697 203C700.012 204.505 701.075 205.76 702 209L704 209C703.826 206.388 703.582 205.057 702 203C705.151 196.769 700.737 195.139 695 195z"/>
<path style="fill:#67b0db; stroke:none;" d="M701 195L702 196L701 195M82 196L83 197L82 196M99 196L100 197L99 196M410 196L411 197L410 196M511 196L512 197L511 196M688 196L689 197L688 196M703 196L704 197L703 196M707 196L708 197L707 196M710 196L711 197L710 196M102.667 197.333C102.222 197.778 103.278 197.722 103.333 197.667C103.778 197.222 102.722 197.278 102.667 197.333M194 197L195 198L194 197M690 197L691 198L690 197z"/>
<path style="fill:#fefeff; stroke:none;" d="M697 197L697 201C698.878 200.824 700.199 200.562 702 200L702 198C700.199 197.438 698.878 197.176 697 197z"/>
<path style="fill:#67b0db; stroke:none;" d="M82.3333 198.667C82.2778 198.722 82.2222 199.778 82.6667 199.333C82.7222 199.278 82.7778 198.222 82.3333 198.667M87 201L90 199C88.0072 198.301 87.8473 199.006 87 201M105 198L106 199L105 198M137.333 198.667C137.278 198.722 137.222 199.778 137.667 199.333C137.722 199.278 137.778 198.222 137.333 198.667M183 198L184 199L183 198M205 198L205 202C205.71 200.241 205.71 199.759 205 198M409 198L410 199L409 198M510 198L511 199L510 198M687 198L688 199L687 198M708 198L709 199L708 198z"/>
<path style="fill:#0179c1; stroke:none;" d="M85 214L130 214C127.719 210.658 123.743 209.644 120 208.344C113.05 205.931 106.003 203.891 99 201.656C96.2958 200.793 91.4357 198.167 88.7276 200.068C85.3741 202.422 85.1605 210.319 85 214z"/>
<path style="fill:#67b0db; stroke:none;" d="M92 199L93 200L92 199M109 199L110 200L109 199M131 199L131 204C131.83 201.969 131.83 201.03 131 199z"/>
<path style="fill:#0179c1; stroke:none;" d="M177 199C177 204.1 176.934 208.972 176 214L188 214C185.805 208.21 181.804 202.886 177 199z"/>
<path style="fill:#67b0db; stroke:none;" d="M178 199L179 200L178 199M184 199L185 200L184 199M689 199L689 204C689.83 201.97 689.83 201.03 689 199M711 199L711 205C711.951 202.715 711.951 201.285 711 199M95 200L96 201L95 200M112 200L113 201L112 200M195 200L196 201L195 200M701 200L702 201L701 200M98.6667 201.333C98.2222 201.778 99.2778 201.722 99.3333 201.667C99.7778 201.222 98.7222 201.278 98.6667 201.333M114.667 201.333C114.222 201.778 115.278 201.722 115.333 201.667C115.778 201.222 114.722 201.278 114.667 201.333M407 201L408 202L407 201M508 201L509 202L508 201M697 201C698.249 201.685 698.548 201.749 700 202C698.752 201.315 698.452 201.251 697 201M703 201L704 202L703 201M81 202L82 203L81 202M101.667 202.333C101.222 202.778 102.278 202.722 102.333 202.667C102.778 202.222 101.722 202.278 101.667 202.333M117.667 202.333C117.222 202.778 118.278 202.722 118.333 202.667C118.778 202.222 117.722 202.278 117.667 202.333M180 202L181 203L180 202M702 202L703 203L702 202M105 203L106 204L105 203M120 203L121 204L120 203M136 203L136 206C136.696 204.446 136.696 204.554 136 203M181 203L182 204L181 203M187 203L188 204L187 203M507 203L508 204L507 203M697 203C698.248 203.685 698.548 203.749 700 204C698.752 203.315 698.452 203.251 697 203M86 204L87 205L86 204M108 204L109 205L108 204M123 204L124 205L123 204M188 204L189 205L188 204M405 204L406 205L405 204M506 204L507 205L506 204M111 205L112 206L111 205M126 205L127 206L126 205M196.333 205.667C196.278 205.722 196.222 206.778 196.667 206.333C196.722 206.278 196.778 205.222 196.333 205.667M687 205L688 206L687 205M701.333 205.667C701.278 205.722 701.222 206.778 701.667 206.333C701.722 206.278 701.778 205.222 701.333 205.667M80.3333 206.667C80.2778 206.722 80.2222 207.778 80.6667 207.333C80.7222 207.278 80.7778 206.222 80.3333 206.667M114 206L115 207L114 206M128 206L129 207L128 206M404 206L405 207L404 206M505 206L506 207L505 206M690 206L691 207L690 206M708 206L709 207L708 206M117 207L118 208L117 207M184 207L185 208L184 207M190 207L191 208L190 207M710 207L711 208L710 207M85 208L86 209L85 208M120 208L121 209L120 208M171 208L171 211C171.696 209.446 171.696 209.554 171 208M691 208L692 209L691 208M704 208L705 209L704 208M123 209L124 210L123 209M136 209L137 210L136 209M176 209L176 212C176.696 210.446 176.696 210.554 176 209M402 209L403 210L402 209M503 209L504 210L503 209M689 209L690 210L689 209M692 209L693 210L692 209M706 209L707 210L706 209M79.3333 210.667C79.2778 210.722 79.2222 211.778 79.6667 211.333C79.7222 211.278 79.7778 210.222 79.3333 210.667M125.667 210.333C125.222 210.778 126.278 210.722 126.333 210.667C126.778 210.222 125.722 210.278 125.667 210.333M138 210L139 211L138 210M186 210L187 211L186 210M192 210L193 211L192 210M197.333 210.667C197.278 210.722 197.222 211.778 197.667 211.333C197.722 211.278 197.778 210.222 197.333 210.667M693 210L694 211L693 210M705 210L706 211L705 210M708 210L709 211L708 210M128 211L129 212L128 211M141 211L142 212L141 211M187 211L188 212L187 211M691 211L692 212L691 211M695 211L696 212L695 211M703 211L704 212L703 211M707 211L708 212L707 211M84.3333 212.667C84.2778 212.722 84.2222 213.778 84.6667 213.333C84.7222 213.278 84.7778 212.222 84.3333 212.667M143 212L144 213L143 212M193 212L194 213L193 212M400 212L401 213L400 212M501 212L502 213L501 212M692 212L693 213L692 212M697 212C698.506 212.683 699.315 212.826 701 213C699.494 212.317 698.685 212.174 697 212M145 213L146 214L145 213M188 213L189 214L188 213M694 213L695 214L694 213M704 213L705 214L704 213M697 214C698.506 214.683 699.315 214.826 701 215C699.494 214.317 698.685 214.174 697 214z"/>
<path style="fill:#0179c1; stroke:none;" d="M117 231C115.488 238.264 121.512 238.264 120 231L117 231M585 231C584.021 234.674 584.202 236.74 588 238C588.599 234.383 588.249 232.806 585 231z"/>
<path style="fill:#67b0db; stroke:none;" d="M587 231L588 232L587 231z"/>
<path style="fill:#0179c1; stroke:none;" d="M39 232C44.9386 239.193 43.0006 249.136 43 258C42.9997 263.004 43.64 267.154 39 270C42.9587 271.661 47.7366 271 52 271C48.0825 265.574 49 259.414 49 253C52.0215 253.711 55.042 254.357 57.956 252.82C63.7768 249.75 65.9069 240.408 61.3472 235.419C56.4063 230.013 45.5586 232 39 232z"/>
<path style="fill:#67b0db; stroke:none;" d="M56.6667 232.333C56.2222 232.778 57.2778 232.722 57.3333 232.667C57.7778 232.222 56.7222 232.278 56.6667 232.333M116 232L117 233L116 232M120 232L121 233L120 232M202.333 232.667C202.278 232.722 202.222 233.778 202.667 233.333C202.722 233.278 202.778 232.222 202.333 232.667z"/>
<path style="fill:#0179c1; stroke:none;" d="M203 232C207.235 238.846 206 246.023 206 254C206 257.511 206.508 261.528 205.571 264.946C204.938 267.256 203.199 268.995 202 271L211 271C210.02 269.217 210.092 269.406 208 269L208 241C213.941 247.739 216.009 261.316 218 270C221.055 267.869 221.573 264.474 222.659 261C224.84 254.025 227.005 247.031 229 240C231.541 248.363 234.441 264.739 226 270C230.217 271.769 235.459 271 240 271C234.657 263.6 235.996 252.717 236 244C236.002 239.317 235.546 235.456 240 233C224.769 226.609 226.99 249.773 220 257C219.138 251.166 216.874 245.578 215 240C214.225 237.695 213.611 234.519 211.49 233.028C209.236 231.444 205.6 232.002 203 232z"/>
<path style="fill:#67b0db; stroke:none;" d="M212 232L213 233L212 232M229 232L230 233L229 232M497 232C498.393 233.434 499.233 234.045 501 235C499.607 233.566 498.767 232.955 497 232z"/>
<path style="fill:#0179c1; stroke:none;" d="M498 232C503.053 238.999 501.001 249.719 501 258C501 262.739 501.385 266.414 498 270C501.697 271.552 506.017 271 510 271C504.819 263.824 506.996 252.497 507 244C507.002 239.231 506.64 235.674 511 233C507.041 231.339 502.263 232 498 232z"/>
<path style="fill:#67b0db; stroke:none;" d="M588 232L589 233L588 232M39.6667 233.333C39.2222 233.778 40.2778 233.722 40.3333 233.667C40.7778 233.222 39.7222 233.278 39.6667 233.333M50 233C51.2483 233.685 51.5484 233.749 53 234C51.7516 233.315 51.4516 233.251 50 233M59 233L60 234L59 233M237.667 233.333C237.222 233.778 238.278 233.722 238.333 233.667C238.778 233.222 237.722 233.278 237.667 233.333M509 233L510 234L509 233M583 233L583 236C583.696 234.446 583.696 234.554 583 233z"/>
<path style="fill:#fefeff; stroke:none;" d="M49 234L49 242C49.0006 243.327 48.9438 244.671 49.0193 245.995C49.2276 249.65 51.7031 253.679 55.2585 249.562C60.6105 243.364 56.3966 234.409 49 234z"/>
<path style="fill:#67b0db; stroke:none;" d="M54 234L55 235L54 234M507 234L508 235L507 234z"/>
<path style="fill:#0179c1; stroke:none;" d="M180 235L174 245C180.478 249.199 175.406 261.322 177.434 267.891C179.479 274.519 185.043 269.648 187 266L182 268C180.233 260.577 181 252.593 181 245L186 245L186 243L181 243C180.993 240.164 181.098 237.613 180 235z"/>
<path style="fill:#67b0db; stroke:none;" d="M181 235L181 243L186 243C184.494 242.317 183.685 242.174 182 242C181.981 239.457 181.985 237.332 181 235M206 235L206 238C206.696 236.446 206.696 236.554 206 235M213 235L214 236L213 235M228 235L229 236L228 235M474 235L475 236L474 235z"/>
<path style="fill:#0179c1; stroke:none;" d="M475 235L468 245C474.256 249.056 469.604 260.594 471.434 266.981C473.382 273.78 478.838 270.483 481 266L476 268L476 245L480 245L480 243L476 243C475.993 240.164 476.098 237.613 475 235z"/>
<path style="fill:#67b0db; stroke:none;" d="M571 235L572 236L571 235z"/>
<path style="fill:#0179c1; stroke:none;" d="M572 235L565 245C571.256 249.056 566.604 260.594 568.434 266.981C570.382 273.78 575.838 270.483 578 266L573 268L573 245L577 245L577 243L573 243C572.993 240.164 573.098 237.613 572 235z"/>
<path style="fill:#67b0db; stroke:none;" d="M600 235L601 236L600 235z"/>
<path style="fill:#0179c1; stroke:none;" d="M601 235L594 245C600.256 249.056 595.604 260.594 597.434 266.981C599.382 273.78 604.837 270.483 607 266L602 268L602 245L606 245L606 243L602 243C601.993 240.164 602.098 237.613 601 235M645 235L639 245C645.478 249.199 640.406 261.322 642.434 267.891C644.479 274.519 650.043 269.648 652 266L647 268L647 245L651 245L651 243L647 243L647 235L645 235z"/>
<path style="fill:#67b0db; stroke:none;" d="M56 236L57 237L56 236M62 236L63 237L62 236M179 236L180 237L179 236M588 236L589 237L588 236M644 236L645 237L644 236M116 237L117 238L116 237M120 237L121 238L120 237M473 237L474 238L473 237M570 237L571 238L570 237M584 237L585 238L584 237M599 237L600 238L599 237M57 238L57 245C58.0595 242.466 58.0595 240.534 57 238M63 238L64 239L63 238M118 238L119 239L118 238M178 238L179 239L178 238M214 238L215 239L214 238M227 238L228 239L227 238M585.667 238.333C585.222 238.778 586.278 238.722 586.333 238.667C586.778 238.222 585.722 238.278 585.667 238.333M643 238L644 239L643 238M177 239L178 240L177 239M229 240L230 241L229 240M471 240L472 241L471 240M568 240L569 241L568 240M597 240L598 241L597 240M209 241L210 242L209 241M215 241L216 242L215 241M226 241L227 242L226 241M228.333 241.667C228.278 241.722 228.222 242.778 228.667 242.333C228.722 242.278 228.778 241.222 228.333 241.667M470 241L471 242L470 241M567 241L568 242L567 241M596 241L597 242L596 241M641 241L642 242L641 241z"/>
<path style="fill:#0179c1; stroke:none;" d="M67 245C69.9946 252.815 70.2938 263.227 67 271L77 271C72.0593 264.157 72.2429 251.494 79 246L80 250C83.0903 248.974 86.0875 242.672 80.8534 242.634C78.0875 242.614 75.8322 245.307 74 247L74 242L67 245z"/>
<path style="fill:#67b0db; stroke:none;" d="M78 242L79 243L78 242M94 242L95 243L94 242z"/>
<path style="fill:#0179c1; stroke:none;" d="M95.0039 242.746C87.2764 245.634 85.145 257.017 88.0093 263.996C90.0202 268.896 95.5797 273.025 100.996 271.091C109.029 268.223 111.191 256.098 107.86 249.015C105.639 244.292 100.249 240.786 95.0039 242.746z"/>
<path style="fill:#67b0db; stroke:none;" d="M101 242L102 243L101 242z"/>
<path style="fill:#0179c1; stroke:none;" d="M113 246C114.248 246.685 114.548 246.749 116 247C116 256.171 117.605 267.038 115.606 276C114.906 279.143 113.095 281.986 112 285C125.695 277.724 121 255.025 121 242C118.126 243.045 115.618 244.414 113 246z"/>
<path style="fill:#67b0db; stroke:none;" d="M134 242L135 243L134 242z"/>
<path style="fill:#0179c1; stroke:none;" d="M147 265C144.709 266.439 141.935 268.914 139.015 268.249C135.142 267.368 130.374 260.149 133.644 256.603C136.336 253.684 143.411 255 147 255C146.967 251.353 147.039 247.282 144.347 244.434C136.927 236.582 127.792 247.652 127.106 255C126.614 260.272 127.82 266.08 132.108 269.566C137.518 273.965 145.106 271.396 147 265z"/>
<path style="fill:#67b0db; stroke:none;" d="M142 242L143 243L142 242M159.667 242.333C159.222 242.778 160.278 242.722 160.333 242.667C160.778 242.222 159.722 242.278 159.667 242.333z"/>
<path style="fill:#0179c1; stroke:none;" d="M170 264C168.324 265.409 166.383 267.566 163.999 267.52C157.593 267.398 156.515 256.567 157.215 252C157.57 249.681 158.905 245.215 161.917 245.207C164.47 245.2 166.831 249.716 169 251C168.992 248.809 169.467 245.578 167.972 243.742C165.276 240.432 158.993 242.704 156.329 244.854C152.816 247.69 151.239 252.606 151.13 257C151.012 261.797 153.173 267.277 157.185 270.106C163.073 274.259 168.754 270.122 170 264z"/>
<path style="fill:#67b0db; stroke:none;" d="M167 242L168 243L167 242M251 242L252 243L251 242z"/>
<path style="fill:#0179c1; stroke:none;" d="M245 253L247 253C248.308 250.562 249.511 246.314 252.205 245.06C255.854 243.361 257.183 248.328 256.238 250.91C254.216 256.441 247.123 258.291 245.029 264.004C243.711 267.596 245.683 271.915 250.003 271.42C252.839 271.095 254.996 268.781 257 267C259.308 273.028 264.347 271.693 266 266L263 268C261.427 261.395 264.637 249.978 260.821 244.434C255.727 237.033 243.662 245.742 245 253z"/>
<path style="fill:#67b0db; stroke:none;" d="M259 242L260 243L259 242M273 242L274 243L273 242z"/>
<path style="fill:#0179c1; stroke:none;" d="M274 242L269 245C271.756 251.504 273.415 264.697 268 270C271.432 271.44 275.3 271 279 271C275.169 265.694 275.392 258.368 276.109 252.001C276.461 248.87 278.153 245.06 281.961 245.466C285.218 245.813 286.423 249.218 286.811 252.001C287.607 257.712 288.091 265.634 284 270C287.432 271.44 291.3 271 295 271C288.443 264.628 292.291 256.089 290.772 248.015C289.769 242.687 284.682 241.128 280.025 243.121C278.274 243.87 276.633 245.032 275 246C274.826 244.315 274.683 243.506 274 242z"/>
<path style="fill:#67b0db; stroke:none;" d="M280 242L281 243L280 242M287 242L288 243L287 242M305 242L306 243L305 242z"/>
<path style="fill:#0179c1; stroke:none;" d="M299 253C302.399 251.145 302.932 246.599 306.208 245.06C309.895 243.329 311.154 248.39 310.238 250.961C308.495 255.854 302.539 257.516 300.179 262.039C298.415 265.421 298.775 272.036 304.018 271.42C306.846 271.087 308.999 268.778 311 267C314.176 272.644 318.837 272.014 321 266L317 268C315.427 261.395 318.637 249.978 314.821 244.434C309.686 236.974 297.843 245.86 299 253z"/>
<path style="fill:#67b0db; stroke:none;" d="M313 242L314 243L313 242M327 242L328 243L327 242z"/>
<path style="fill:#0179c1; stroke:none;" d="M327 262C322.511 264.784 324.834 266.602 324.193 271C323.78 273.832 321.191 275.939 321.582 278.957C321.993 282.131 325.168 283.959 328.004 284.605C332.8 285.697 338.502 284.022 341.397 279.895C344.778 275.073 342.82 268.451 336.995 267.214C333.59 266.491 330.349 266.062 327 265L327 263C331.119 261.875 335.774 261.436 338.694 257.917C341.368 254.695 340.142 251.732 340.722 248.111C340.963 246.61 342.361 245.326 343 244C338.509 243.795 333.428 241.323 329.015 242.448C318.492 245.132 323.243 256.105 327 262z"/>
<path style="fill:#67b0db; stroke:none;" d="M334 242L335 243L334 242M352.667 242.333C352.222 242.778 353.278 242.722 353.333 242.667C353.778 242.222 352.722 242.278 352.667 242.333z"/>
<path style="fill:#0179c1; stroke:none;" d="M366 264C363.322 265.495 360.372 268.998 357.015 268.248C352.983 267.348 347.988 259.131 352.357 256.028C355.393 253.871 361.454 255 365 255C364.991 251.748 365.34 247.983 363.258 245.228C356.226 235.925 346.052 247.363 345.189 255C344.657 259.711 345.773 265.337 349.228 268.772C355.157 274.666 363.53 271.095 366 264z"/>
<path style="fill:#67b0db; stroke:none;" d="M360 242L361 243L360 242M374 242L375 243L374 242z"/>
<path style="fill:#0179c1; stroke:none;" d="M375 242L370 245C372.565 251.695 374.55 264.565 369 270C372.432 271.44 376.3 271 380 271C376.216 265.759 376.651 259.268 377.044 253C377.241 249.861 378.256 245.866 382.025 245.466C385.803 245.065 387.207 248.994 387.695 252.001C388.773 258.64 388.227 265.134 385 271L395 271C391.285 265.854 391.072 258.17 392.344 252.001C392.911 249.251 394.674 245.485 397.999 245.485C401.447 245.485 402.697 249.206 402.941 252.001C403.494 258.314 403.483 265.141 401 271L412 271C405.609 265.145 408.899 256.753 407.811 249.004C407.077 243.774 403.16 241.111 398.002 242.702C395.573 243.451 393.3 244.933 391 246C387.105 239.828 381.079 243.101 376 246C375.826 244.315 375.683 243.506 375 242z"/>
<path style="fill:#67b0db; stroke:none;" d="M376 242C376.307 244.123 376.382 244.686 378 246C377.404 244.44 376.911 243.377 376 242M382 242L383 243L382 242M388 242L389 243L388 242M397 242L398 243L397 242M404 242L405 243L404 242M422 242L423 243L422 242z"/>
<path style="fill:#0179c1; stroke:none;" d="M435 264C433.24 265.5 431.335 267.607 428.984 268.114C421.908 269.641 420.104 259.86 420 255L435 255C434.969 251.522 435.029 247.999 432.566 245.228C426.037 237.881 416.44 245.224 415.214 253C414.398 258.171 414.841 264.651 418.558 268.656C424.263 274.805 432.931 271.304 435 264z"/>
<path style="fill:#67b0db; stroke:none;" d="M429 242L430 243L429 242M444 242L445 243L444 242z"/>
<path style="fill:#0179c1; stroke:none;" d="M445 242L439 245C443.291 250.943 444.231 264.418 439 270C442.163 271.327 445.586 271 449 271C445.487 265.675 445.082 258.259 446.228 252.001C446.744 249.189 448.658 245.485 451.996 245.485C455.446 245.485 456.696 249.204 456.941 252.001C457.494 258.314 457.483 265.141 455 271L465 271C459.823 263.83 463.773 255.921 461.566 248.005C460.187 243.056 455.643 241.212 451.025 243.065C449.214 243.791 447.622 244.945 446 246C445.826 244.315 445.683 243.506 445 242z"/>
<path style="fill:#67b0db; stroke:none;" d="M451 242L452 243L451 242M458 242L459 243L458 242M469 242L470 243L469 242M476 242C477.506 242.683 478.315 242.826 480 243C478.494 242.317 477.685 242.174 476 242z"/>
<path style="fill:#0179c1; stroke:none;" d="M520 242L515 245C517.565 251.695 519.55 264.565 514 270C517.432 271.44 521.3 271 525 271C521.268 265.831 521.173 258.226 522.148 252.001C522.606 249.077 524.57 245.636 527.961 245.636C531.321 245.636 532.583 249.258 532.891 252.001C533.531 257.689 534.264 265.824 530 270C533.432 271.44 537.3 271 541 271C536.127 264.251 539.208 256.642 537.517 249.004C536.347 243.722 532.207 241.148 527.005 242.995C524.918 243.735 522.956 244.976 521 246C520.826 244.315 520.683 243.506 520 242z"/>
<path style="fill:#67b0db; stroke:none;" d="M521 242L521 246C521.71 244.241 521.71 243.759 521 242M527 242L528 243L527 242M533 242L534 243L533 242M549 242C551.042 243.416 552.511 243.745 555 244C553.031 242.937 551.202 242.468 549 242z"/>
<path style="fill:#0179c1; stroke:none;" d="M551 242L560 249C559.788 242.534 556.937 242.021 551 242z"/>
<path style="fill:#67b0db; stroke:none;" d="M566 242L567 243L566 242M573 242C574.506 242.683 575.315 242.826 577 243C575.494 242.317 574.685 242.174 573 242z"/>
<path style="fill:#0179c1; stroke:none;" d="M587 242L581 246C584.726 252.7 583.917 264.115 581 271L591 271C584.735 262.323 590.877 251.238 587 242z"/>
<path style="fill:#67b0db; stroke:none;" d="M588 242L588 269C590.541 262.945 590.541 248.055 588 242M595 242L596 243L595 242M602 242C603.506 242.683 604.315 242.826 606 243C604.494 242.317 603.685 242.174 602 242M608 243C610.935 243.458 614.005 243.023 617 243L617 266C619.061 261.089 618.095 254.296 617.995 249.001C617.958 247.021 618.137 244.403 616.397 243.028C614.074 241.192 610.48 242.269 608 243M625 242C627.331 242.985 629.457 242.981 632 243C629.668 242.015 627.543 242.019 625 242M640 242L641 243L640 242M647 242C648.506 242.683 649.315 242.826 651 243C649.494 242.317 648.685 242.174 647 242M662 242L663 243L662 242z"/>
<path style="fill:#0179c1; stroke:none;" d="M675 264C673.182 265.45 671.272 267.536 668.96 268.154C661.573 270.127 660.105 259.944 660 255L675 255C674.902 250.842 674.447 246.421 670.786 243.742C664.337 239.023 656.366 245.31 655.225 252C654.31 257.359 654.477 264.613 658.394 268.772C664.054 274.78 672.965 271.17 675 264z"/>
<path style="fill:#67b0db; stroke:none;" d="M669 242L670 243L669 242M70 243L71 244L70 243M77 243L78 244L77 243M92 243L93 244L92 243M103 243L104 244L103 243M117 243L118 244L117 243M137 243C138.248 243.685 138.548 243.749 140 244C138.752 243.315 138.452 243.251 137 243M157 243L158 244L157 243M249 243L250 244L249 243M253.667 243.333C253.222 243.778 254.278 243.722 254.333 243.667C254.778 243.222 253.722 243.278 253.667 243.333M303 243L304 244L303 243M307.667 243.333C307.222 243.778 308.278 243.722 308.333 243.667C308.778 243.222 307.722 243.278 307.667 243.333M330 243L331 244L330 243z"/>
<path style="fill:#fefeff; stroke:none;" d="M331.12 244.176C326.214 244.93 326.693 259.927 331.961 259.079C336.756 258.306 336.377 243.368 331.12 244.176z"/>
<path style="fill:#67b0db; stroke:none;" d="M332 243L333 244L332 243M355 243C356.248 243.685 356.548 243.749 358 244C356.752 243.315 356.452 243.251 355 243M389 243L390 244L389 243M395 243L396 244L395 243M420 243L421 244L420 243z"/>
<path style="fill:#fefeff; stroke:none;" d="M421 253C422.864 252.993 425.047 253.232 426.857 252.682C432.868 250.855 428.296 239.836 422.742 246.162C422.055 246.944 421.761 248.005 421.434 248.96C420.996 250.236 421.072 251.682 421 253z"/>
<path style="fill:#67b0db; stroke:none;" d="M427 243L428 244L427 243M431 243L432 244L431 243M442 243L443 244L442 243M449 243L450 244L449 243M459 243L460 244L459 243M468 243L469 244L468 243M480.333 243.667C480.278 243.722 480.222 244.778 480.667 244.333C480.722 244.278 480.778 243.222 480.333 243.667M518 243L519 244L518 243M525 243L526 244L525 243M535 243L536 244L535 243z"/>
<path style="fill:#0179c1; stroke:none;" d="M546 262C541.206 273.43 556.891 275.324 560.396 265.985C564.749 254.384 545.831 253.887 551 243C549.645 243.393 548.312 243.503 547.273 244.603C538.809 253.56 554.468 257.145 556.288 263.999C557.147 267.236 554.416 270.497 551.093 268.914C548.419 267.639 547.235 264.475 546 262z"/>
<path style="fill:#67b0db; stroke:none;" d="M565 243L566 244L565 243M577.333 243.667C577.278 243.722 577.222 244.778 577.667 244.333C577.722 244.278 577.778 243.222 577.333 243.667M585 243L586 244L585 243M594 243L595 244L594 243M606.333 243.667C606.278 243.722 606.222 244.778 606.667 244.333C606.722 244.278 606.778 243.222 606.333 243.667z"/>
<path style="fill:#0179c1; stroke:none;" d="M609 243C610.248 243.685 610.548 243.749 612 244C612 251.417 608.526 274.633 621.998 271.312C624.469 270.703 626.766 269.169 629 268L629 271C631.354 270.251 632.95 269.398 635 268C631.134 261.049 633 250.763 633 243L625 243C628.692 248.113 629.271 256.882 627.566 262.995C626.725 266.013 623.726 269.692 620.228 267.914C617.696 266.627 617.203 263.532 617.044 261C616.67 255.043 617 248.969 617 243L609 243z"/>
<path style="fill:#67b0db; stroke:none;" d="M651.333 243.667C651.278 243.722 651.222 244.778 651.667 244.333C651.722 244.278 651.778 243.222 651.333 243.667M660 243L661 244L660 243M664 243C662.814 244.186 662.472 244.584 662 246C663.548 244.738 663.808 244.806 664 243z"/>
<path style="fill:#fefeff; stroke:none;" d="M660 253C662.342 252.998 665.517 253.473 667.681 252.397C670.747 250.872 669.973 245.354 666.787 244.346C662.4 242.957 660.527 250.09 660 253z"/>
<path style="fill:#67b0db; stroke:none;" d="M667 243L668 244L667 243M671 243L672 244L671 243M68 244L69 245L68 244M76 244L77 245L76 244M84 244L84 248C84.7102 246.241 84.7102 245.759 84 244M91 244L92 245L91 244z"/>
<path style="fill:#fefeff; stroke:none;" d="M96.3789 245.086C91.3998 247.863 92.3945 259.399 93.5332 263.995C94.2072 266.716 96.2852 270.784 99.7369 268.914C104.869 266.133 104.29 254.584 102.775 250.005C101.921 247.423 99.7801 243.19 96.3789 245.086z"/>
<path style="fill:#67b0db; stroke:none;" d="M131 244L132 245L131 244z"/>
<path style="fill:#fefeff; stroke:none;" d="M133 253C134.864 252.993 137.046 253.232 138.856 252.682C144.929 250.838 140.462 240.47 135.009 246.317C134.334 247.041 134.006 248.078 133.653 248.975C133.144 250.265 133.14 251.647 133 253z"/>
<path style="fill:#67b0db; stroke:none;" d="M156 244L157 245L156 244M160 244L161 245L160 244M163 244L164 245L163 244M169 244L169 251C170.059 248.466 170.059 246.534 169 244M173 244L174 245L173 244M210 244L211 245L210 244M216 244L217 245L216 244M225 244L226 245L225 244M236 244L236 261C237.883 256.514 237.883 248.486 236 244M251 244L252 245L251 244M261 244L262 245L261 244M277 244L278 245L277 244M305 244L306 245L305 244M315 244L316 245L315 244M343.333 244.667C343.278 244.722 343.222 245.778 343.667 245.333C343.722 245.278 343.778 244.222 343.333 244.667M349 244L350 245L349 244z"/>
<path style="fill:#fefeff; stroke:none;" d="M351 253L360 253C359.993 250.935 360.351 248.231 359.397 246.317C355.919 239.342 351.434 250.12 351 253z"/>
<path style="fill:#67b0db; stroke:none;" d="M371 244L372 245L371 244M378 244L379 245L378 244M394 244L395 245L394 244M397.667 244.333C397.222 244.778 398.278 244.722 398.333 244.667C398.778 244.222 397.722 244.278 397.667 244.333M419 244L420 245L419 244M423 244L424 245L423 244M432 244L433 245L432 244M440 244L441 245L440 244M448 244L449 245L448 244M451.667 244.333C451.222 244.778 452.278 244.722 452.333 244.667C452.778 244.222 451.722 244.278 451.667 244.333M460 244L461 245L460 244M516 244L517 245L516 244M546 244L547 245L546 244M583 244L584 245L583 244M611 244L612 245L611 244M638 244L639 245L638 244M668 244L669 245L668 244M672 244L673 245L672 244M63.3333 245.667C63.2778 245.722 63.2222 246.778 63.6667 246.333C63.7222 246.278 63.7778 245.222 63.3333 245.667M75 245L76 246L75 245M90 245L91 246L90 245M105 245L106 246L105 245M113 245L114 246L113 245M130 245L131 246L130 245M145 245L146 246L145 245M159 245L160 246L159 245M176 245L176 266C178.153 260.869 178.153 250.131 176 245M181 245L181 267C183.219 261.713 183.219 250.287 181 245M227 245L228 246L227 245M250 245L251 246L250 245M256 245L256 252C257.059 249.466 257.059 247.534 256 245M268 245L268 247L270 247C269.455 245.365 269.635 245.545 268 245M276 245L277 246L276 245M278 245L279 246L278 245M284 245L285 246L284 245M290 245L291 246L290 245M304 245L305 246L304 245M310 245L310 252C311.059 249.466 311.059 247.534 310 245M328 245L329 246L328 245M334 245L335 246L334 245M369.333 245.667C369.278 245.722 369.222 246.778 369.667 246.333C369.722 246.278 369.778 245.222 369.333 245.667M379 245L380 246L379 245M385 245L386 246L385 245M391 245L392 246L391 245M395 245L396 246L395 245M418 245L419 246L418 245M429 245L430 246L429 245M433 245L434 246L433 245M449 245L450 246L449 245M530 245L531 246L530 245M556 245L557 246L556 245M581 245L582 246L581 245M627 245L627 265C629.087 260.027 629.087 249.973 627 245M641 245L641 265C643.087 260.027 643.087 249.973 641 245M89 246L90 247L89 246M94 246L95 247L94 246M101 246L102 247L101 246M106 246L107 247L106 246M134 246L135 247L134 246M146.333 246.667C146.278 246.722 146.222 247.778 146.667 247.333C146.722 247.278 146.778 246.222 146.333 246.667M154 246L155 247L154 246M277 246L278 247L277 246M285 246L286 247L285 246M323 246L324 247L323 246M352 246L353 247L352 246M364 246L365 247L364 246M378 246L379 247L378 246M386 246L387 247L386 246M407 246L408 247L407 246M417 246L418 247L417 246M439.667 246.333C439.222 246.778 440.278 246.722 440.333 246.667C440.778 246.222 439.722 246.278 439.667 246.333M461 246L462 247L461 246M531 246L532 247L531 246M548 246L548 249C548.696 247.446 548.696 247.554 548 246M657 246L658 247L657 246M669 246L670 247L669 246M673 246L674 247L673 246M115 247L115 278C117.497 272.049 116 263.42 116 257C116 253.581 116.328 250.166 115 247M129 247L130 248L129 247M142 247L142 252C142.83 249.969 142.83 249.03 142 247M153 247L154 248L153 247M158 247L159 248L158 247M165.333 247.667C165.278 247.722 165.222 248.778 165.667 248.333C165.722 248.278 165.778 247.222 165.333 247.667M211 247L212 248L211 247M217 247L218 248L217 247M224.333 247.667C224.278 247.722 224.222 248.778 224.667 248.333C224.722 248.278 224.778 247.222 224.333 247.667M230 247L230 268C232.153 262.869 232.153 252.131 230 247M249.333 247.667C249.278 247.722 249.222 248.778 249.667 248.333C249.722 248.278 249.778 247.222 249.333 247.667M299 247L300 248L299 247M303.333 247.667C303.278 247.722 303.222 248.778 303.667 248.333C303.722 248.278 303.778 247.222 303.333 247.667M335 247L335 255C336.161 252.23 336.161 249.77 335 247M347 247L348 248L347 247M360 247L360 252C360.83 249.969 360.83 249.031 360 247M393 247L394 248L393 247M402 247L403 248L402 247M421 247L422 248L421 247M434 247L435 248L434 247M441 247L441 268C443.153 262.869 443.153 252.131 441 247M447 247L448 248L447 247M456 247L457 248L456 247M537.333 247.667C537.278 247.722 537.222 248.778 537.667 248.333C537.722 248.278 537.778 247.222 537.333 247.667M544 247L544 252C544.83 249.97 544.83 249.03 544 247M557 247L558 248L557 247M661 247L662 248L661 247M56 248L57 249L56 248M62 248L63 249L62 248M75 248L76 249L75 248M79 248L80 249L79 248M88 248L89 249L88 248M93 248L94 249L93 248M102 248L103 249L102 248M133 248L134 249L133 248M226 248L227 249L226 248M244 248L245 249L244 248M291 248L291 268C293.087 263.027 293.087 252.973 291 248M322 248L323 249L322 248M327 248L327 253C327.83 250.97 327.83 250.03 327 248M340 248L341 249L340 248M351.333 248.667C351.278 248.722 351.222 249.778 351.667 249.333C351.722 249.278 351.778 248.222 351.333 248.667M377 248L378 249L377 248M416 248L417 249L416 248M522 248L523 249L522 248M532 248L532 269C534.153 263.869 534.153 253.131 532 248M674 248L675 249L674 248M128 249L129 250L128 249M147 249L147 254C147.83 251.969 147.83 251.03 147 249M152 249L153 250L152 249M157 249L158 250L157 249M286 249L286 268C288.02 263.187 288.02 253.813 286 249M346 249L347 250L346 249M365 249L365 255C365.951 252.715 365.951 251.285 365 249M446 249L446 268C448.02 263.187 448.02 253.813 446 249M462 249L462 269C464.087 264.027 464.087 253.973 462 249M559 249L560 250L559 249M61 250L62 251L61 250M87.3333 250.667C87.2778 250.722 87.2222 251.778 87.6667 251.333C87.7222 251.278 87.7778 250.222 87.3333 250.667M212.333 250.667C212.278 250.722 212.222 251.778 212.667 251.333C212.722 251.278 212.778 250.222 212.333 250.667M218 250L219 251L218 250M223.333 250.667C223.278 250.722 223.222 251.778 223.667 251.333C223.722 251.278 223.778 250.222 223.333 250.667M248 250L249 251L248 250M387 250L387 268C388.952 263.349 388.952 254.651 387 250M392 250L392 269C394.02 264.187 394.02 254.813 392 250M408 250L408 269C410.02 264.187 410.02 254.813 408 250M415 250L416 251L415 250M420 250L420 253C420.696 251.446 420.696 251.554 420 250M53 251L54 252L53 251M60 251L61 252L60 251M74 251L74 269C75.9516 264.349 75.9516 255.651 74 251M92 251L92 262C93.4309 258.59 93.4309 254.41 92 251M103.333 251.667C103.278 251.722 103.222 252.778 103.667 252.333C103.722 252.278 103.778 251.222 103.333 251.667M127 251L128 252L127 251M225.333 251.667C225.278 251.722 225.222 252.778 225.667 252.333C225.722 252.278 225.778 251.222 225.333 251.667M302 251L303 252L302 251M345.333 251.667C345.278 251.722 345.222 252.778 345.667 252.333C345.722 252.278 345.778 251.222 345.333 251.667M141 252L142 253L141 252M151.333 252.667C151.278 252.722 151.222 253.778 151.667 253.333C151.722 253.278 151.778 252.222 151.333 252.667M244 252L245 253L244 252M247 252L248 253L247 252M298 252L299 253L298 252M301 252L302 253L301 252M429 252L430 253L429 252M552 252L553 253L552 252M49.6667 253.333C49.2222 253.778 50.2778 253.722 50.3333 253.667C50.7778 253.222 49.7222 253.278 49.6667 253.333M57 253L58 254L57 253M109 253L109 260C110.059 257.466 110.059 255.534 109 253M133 253C135.332 253.985 137.457 253.981 140 254C137.668 253.015 135.543 253.019 133 253M219 253L220 254L219 253M255 253L256 254L255 253M309 253L310 254L309 253M351 253C353.331 253.985 355.457 253.981 358 254C355.668 253.015 353.543 253.019 351 253M414 253L414 261C415.161 258.23 415.161 255.77 414 253M421 253C423.052 253.874 424.747 253.953 427 254C424.948 253.126 423.253 253.047 421 253M554 253L555 254L554 253M654 253L654 261C655.161 258.23 655.161 255.77 654 253M661 253C663.331 253.985 665.457 253.981 668 254C665.668 253.015 663.543 253.019 661 253M86 254L86 260C86.9511 257.715 86.9511 256.285 86 254M213 254L214 255L213 254M222 254L223 255L222 254M224.333 254.667C224.278 254.722 224.222 255.778 224.667 255.333C224.722 255.278 224.778 254.222 224.333 254.667M308 254L309 255L308 254M322 254L323 255L322 254M340 254L341 255L340 254M556 254L557 255L556 254M252 255L253 256L252 255z"/>
<path style="fill:#fefeff; stroke:none;" d="M255 255C251.565 258.866 250.125 261.823 250 267C256.457 266.485 257.241 260.342 255 255z"/>
<path style="fill:#67b0db; stroke:none;" d="M256 255L256 262C257.059 259.466 257.059 257.534 256 255M309.667 255.333C309.222 255.778 310.278 255.722 310.333 255.667C310.778 255.222 309.722 255.278 309.667 255.333M420 255L421 256L420 255M547 255L548 256L547 255M557 255L558 256L557 255M660 255L661 256L660 255M132 256L132 261C132.83 258.969 132.83 258.03 132 256M205 256L205 267C206.431 263.59 206.431 259.41 205 256M220 256L221 257L220 256M251 256L252 257L251 256M305 256L306 257L305 256z"/>
<path style="fill:#fefeff; stroke:none;" d="M311 256C309.187 256.534 307.884 256.847 306.548 258.318C301.022 264.4 308.942 270.129 310.671 261.02C310.986 259.36 310.964 257.68 311 256z"/>
<path style="fill:#67b0db; stroke:none;" d="M350 256L350 260C350.71 258.241 350.71 257.759 350 256M548 256L549 257L548 256M214.333 257.667C214.278 257.722 214.222 258.778 214.667 258.333C214.722 258.278 214.778 257.222 214.333 257.667M250 257L251 258L250 257M304 257L305 258L304 257M328 257L329 258L328 257M550 257L551 258L550 257M223 258L224 259L223 258M334 258L335 259L334 258M338 258L339 259L338 258M552 258L553 259L552 258M560 258L561 259L560 258M103 259L103 262C103.696 260.446 103.696 260.554 103 259M157 259L158 260L157 259M305 259L306 260L305 259M329 259L330 260L329 259M333 259L334 260L333 259M337 259L338 260L337 259M420 259L420 262C420.696 260.446 420.696 260.554 420 259M215.333 260.667C215.278 260.722 215.222 261.778 215.667 261.333C215.722 261.278 215.778 260.222 215.333 260.667M250 260L251 261L250 260M335 260L336 261L335 260M222 261L223 262L222 261M333 261L334 262L333 261M345.333 261.667C345.278 261.722 345.222 262.778 345.667 262.333C345.722 262.278 345.778 261.222 345.333 261.667M561 261L561 265C561.71 263.241 561.71 262.759 561 261M660 261L661 262L660 261M127 262L128 263L127 262M245 262L246 263L245 262M249 262L249 266C249.71 264.241 249.71 263.759 249 262M299 262L300 263L299 262M310.333 262.667C310.278 262.722 310.222 263.778 310.667 263.333C310.722 263.278 310.778 262.222 310.333 262.667M325 262L326 263L325 262M328.667 262.333C328.222 262.778 329.278 262.722 329.333 262.667C329.778 262.222 328.722 262.278 328.667 262.333M351.333 262.667C351.278 262.722 351.222 263.778 351.667 263.333C351.722 263.278 351.778 262.222 351.333 262.667M544 262L544 270C545.161 267.23 545.161 264.77 544 262M556 262L557 263L556 262M87 263L88 264L87 263M108 263L109 264L108 263M133 263L134 264L133 263M158 263L159 264L158 263M303 263L303 266C303.696 264.446 303.696 264.554 303 263M415 263L416 264L415 263M93.3333 264.667C93.2778 264.722 93.2222 265.778 93.6667 265.333C93.7222 265.278 93.7778 264.222 93.3333 264.667M146 264L147 267C147.685 265.752 147.749 265.452 148 264L146 264M152 264L153 265L152 264M170.333 264.667C170.278 264.722 170.222 265.778 170.667 265.333C170.722 265.278 170.778 264.222 170.333 264.667M216 264L217 265L216 264M221.333 264.667C221.278 264.722 221.222 265.778 221.667 265.333C221.722 265.278 221.778 264.222 221.333 264.667M244 264L245 265L244 264M298 264L298 269C298.83 266.97 298.83 266.03 298 264M421 264L422 265L421 264M655 264L656 265L655 264M661 264L662 265L661 264M673 264L674 265L673 264M88 265L89 266L88 265M102 265L103 266L102 265M107 265L108 266L107 265M128 265L129 266L128 265M134 265L135 266L134 265M159 265L160 266L159 265M168 265L169 266L168 265M186 265L187 266L186 265M255 265L256 266L255 265M309 265L310 266L309 265M320 265L321 266L320 265M322.333 265.667C322.278 265.722 322.222 266.778 322.667 266.333C322.722 266.278 322.778 265.222 322.333 265.667M328 265L329 266L328 265M346 265L347 266L346 265M352 265L353 266L352 265M433 265L434 266L433 265M480 265L481 266L480 265M547 265L548 266L547 265M577 265C577.545 266.635 577.365 266.455 579 267L579 265L577 265M606 265L607 266L606 265M612.333 265.667C612.278 265.722 612.222 266.778 612.667 266.333C612.722 266.278 612.778 265.222 612.333 265.667M651 265L652 266L651 265M153 266L154 267L153 266M160 266L161 267L160 266M266.333 266.667C266.278 266.722 266.222 267.778 266.667 267.333C266.722 267.278 266.778 266.222 266.333 266.667M304 266L305 267L304 266M316 266L317 267L316 266M331 266C332.769 266.779 334.036 266.912 336 267C334.231 266.221 332.964 266.088 331 266M353 266L354 267L353 266M365 266L366 267L365 266M416 266L417 267L416 266M432 266L433 267L432 266M479 266L480 267L479 266M576 266L577 267L576 266M605 266L606 267L605 266M656 266L657 267L656 266M662 266L663 267L662 266M672 266L673 267L672 266M94 267L95 268L94 267M129 267L130 268L129 267M136 267L137 268L136 267M154 267L155 268L154 267M161 267L162 268L161 267M166 267L167 268L166 267M169 267L170 268L169 267M186 267L187 268L186 267M217 267L218 268L217 267M251 267C252.248 267.685 252.548 267.749 254 268C252.752 267.315 252.452 267.251 251 267M256 267L257 268L256 267M263.667 267.333C263.222 267.778 264.278 267.722 264.333 267.667C264.778 267.222 263.722 267.278 263.667 267.333M305 267C306.248 267.685 306.548 267.749 308 268C306.752 267.315 306.452 267.251 305 267M310 267L311 268L310 267M317.667 267.333C317.222 267.778 318.278 267.722 318.333 267.667C318.778 267.222 317.722 267.278 317.667 267.333M323 267L324 268L323 267M339 267L340 268L339 267M354 267L355 268L354 267M417 267L418 268L417 267M431 267L432 268L431 267M434 267L435 268L434 267M476 267L477 268L476 267M478 267L479 268L478 267M548 267L549 268L548 267M556 267L557 268L556 267M560 267L561 268L560 267M573 267L574 268L573 267M575 267L576 268L575 267M602 267L603 268L602 267M604 267L605 268L604 267M618 267L619 268L618 267M635 267L636 268L635 267M647 267L648 268L647 267M649 267L650 268L649 267M651 267L652 268L651 267M663 267L664 268L663 267M671 267L672 268L671 267M42 268L43 269L42 268M105 268L106 269L105 268M130 268L131 269L130 268M137 268L138 269L137 268M142 268L143 269L142 268M163.667 268.333C163.222 268.778 164.278 268.722 164.333 268.667C164.778 268.222 163.722 268.278 163.667 268.333M204 268L205 269L204 268M208 268L209 269L208 268M220 268L221 269L220 268M237 268L238 269L237 268M270 268L271 269L270 268M311 268L312 269L311 268M320 268L321 269L320 268M348 268L349 269L348 268M355 268L356 269L355 268M360 268L361 269L360 268M371 268L372 269L371 268M425 268L426 269L425 268M429 268L430 269L429 268M433 268L434 269L433 268M471 268L472 269L471 268M480 268L481 269L480 268M500 268L501 269L500 268M507 268L508 269L507 268M516 268L517 269L516 268M549 268L550 269L549 268M559 268L560 269L559 268M568 268L569 269L568 268M577 268L578 269L577 268M597 268L598 269L597 268M606 268L607 269L606 268M619 268L620 269L619 268M624 268L625 269L624 268M628 268C628.307 270.123 628.382 270.686 630 272C629.404 270.44 628.911 269.377 628 268M634 268L635 269L634 268M665 268L666 269L665 268M669 268L670 269L669 268M673 268L674 269L673 268M40 269L41 270L40 269M50.6667 269.333C50.2222 269.778 51.2778 269.722 51.3333 269.667C51.7778 269.222 50.7222 269.278 50.6667 269.333M67 269L68 270L67 269M75 269L76 270L75 269M100 269L101 270L100 269M104 269L105 270L104 269M131 269L132 270L131 269M177 269L178 270L177 269M211.333 269.667C211.278 269.722 211.222 270.778 211.667 270.333C211.722 270.278 211.778 269.222 211.333 269.667M226 269L227 270L226 269M238.667 269.333C238.222 269.778 239.278 269.722 239.333 269.667C239.778 269.222 238.722 269.278 238.667 269.333M257 269L258 270L257 269M265 269L266 270L265 269M268.667 269.333C268.222 269.778 269.278 269.722 269.333 269.667C269.778 269.222 268.722 269.278 268.667 269.333M277 269L278 270L277 269M284.667 269.333C284.222 269.778 285.278 269.722 285.333 269.667C285.778 269.222 284.722 269.278 284.667 269.333M292 269L293 270L292 269M349 269L350 270L349 269M369.667 269.333C369.222 269.778 370.278 269.722 370.333 269.667C370.778 269.222 369.722 269.278 369.667 269.333M378 269L379 270L378 269M385 269L386 270L385 269M393.667 269.333C393.222 269.778 394.278 269.722 394.333 269.667C394.778 269.222 393.722 269.278 393.667 269.333M401 269L402 270L401 269M409.667 269.333C409.222 269.778 410.278 269.722 410.333 269.667C410.778 269.222 409.722 269.278 409.667 269.333M432 269L433 270L432 269M439.667 269.333C439.222 269.778 440.278 269.722 440.333 269.667C440.778 269.222 439.722 269.278 439.667 269.333M447.667 269.333C447.222 269.778 448.278 269.722 448.333 269.667C448.778 269.222 447.722 269.278 447.667 269.333M455 269L456 270L455 269M463.667 269.333C463.222 269.778 464.278 269.722 464.333 269.667C464.778 269.222 463.722 269.278 463.667 269.333M479 269L480 270L479 269M498 269L499 270L498 269M508.667 269.333C508.222 269.778 509.278 269.722 509.333 269.667C509.778 269.222 508.722 269.278 508.667 269.333M515 269L516 270L515 269M523 269L524 270L523 269M531 269L532 270L531 269M539.667 269.333C539.222 269.778 540.278 269.722 540.333 269.667C540.778 269.222 539.722 269.278 539.667 269.333M550 269L551 270L550 269M555 269L556 270L555 269M558 269L559 270L558 269M576 269L577 270L576 269M581 269L582 270L581 269M589.667 269.333C589.222 269.778 590.278 269.722 590.333 269.667C590.778 269.222 589.722 269.278 589.667 269.333M605 269L606 270L605 269M613 269L614 270L613 269M642 269L643 270L642 269M650 269L651 270L650 269M672 269L673 270L672 269M52 270L53 271L52 270M66 270L67 271L66 270M77 270L78 271L77 270M93 270L94 271L93 270M132 270L133 271L132 270M143 270L144 271L143 270M157 270L158 271L157 270M184 270L185 271L184 270M201 270L202 271L201 270M218.667 270.333C218.222 270.778 219.278 270.722 219.333 270.667C219.778 270.222 218.722 270.278 218.667 270.333M240 270L241 271L240 270M245 270L246 271L245 270M264 270L265 271L264 270M283 270L284 271L283 270M299 270L300 271L299 270M312 270L313 271L312 270M350 270L351 271L350 270M361 270L362 271L361 270M384 270L385 271L384 270M395 270L396 271L395 270M400 270L401 271L400 270M420 270L421 271L420 270M431 270L432 271L431 270M438 270L439 271L438 270M449 270L450 271L449 270M454 270L455 271L454 270M465 270L466 271L465 270M472 270L473 271L472 270M478 270L479 271L478 270M497 270L498 271L497 270M510 270L511 271L510 270M569 270L570 271L569 270M575 270L576 271L575 270M580 270L581 271L580 270M591 270L592 271L591 270M598 270L599 271L598 270M604 270L605 271L604 270M614 270L615 271L614 270M624 270L625 271L624 270M631 270L632 271L631 270M649 270L650 271L649 270M95 271L96 272L95 271M100.667 271.333C100.222 271.778 101.278 271.722 101.333 271.667C101.778 271.222 100.722 271.278 100.667 271.333M134 271L135 272L134 271M141 271L142 272L141 271M165 271L166 272L165 271M179 271L180 272L179 271M246 271L247 272L246 271M251 271L252 272L251 271M259 271L260 272L259 271M263 271L264 272L263 271M305 271L306 272L305 271M313 271L314 272L313 271M317 271L318 272L317 271M325 271L326 272L325 271z"/>
<path style="fill:#fefeff; stroke:none;" d="M328.228 272.042C321.026 276.237 329.564 285.438 335.852 281.817C343.43 277.453 334.53 268.372 328.228 272.042z"/>
<path style="fill:#67b0db; stroke:none;" d="M333.667 271.333C333.222 271.778 334.278 271.722 334.333 271.667C334.778 271.222 333.722 271.278 333.667 271.333M352 271L353 272L352 271M359 271L360 272L359 271M429 271L430 272L429 271M473 271L474 272L473 271M570 271L571 272L570 271M574 271L575 272L574 271M599 271L600 272L599 271M603 271L604 272L603 271M616.667 271.333C616.222 271.778 617.278 271.722 617.333 271.667C617.778 271.222 616.722 271.278 616.667 271.333M622 271L623 272L622 271M644 271L645 272L644 271M661 271L662 272L661 271M668.667 271.333C668.222 271.778 669.278 271.722 669.333 271.667C669.778 271.222 668.722 271.278 668.667 271.333M324 272L325 273L324 272M337 272L338 273L337 272M343 272L343 277C343.83 274.97 343.83 274.03 343 272M323 273L324 274L323 273M338 273L339 274L338 273M322 274L323 275L322 274M325 274L326 275L325 274M339 275L339 279C339.71 277.241 339.71 276.759 339 275M119 277L120 278L119 277M114 279L115 280L114 279M118 279L119 280L118 279M321 280L322 281L321 280M326 280L327 281L326 280M338 280L339 281L338 280M341 280L342 281L341 280M113 281L114 282L113 281M327 281L328 282L327 281M337 281L338 282L337 281M340 281L341 282L340 281M112 282L113 283L112 282M329 282L330 283L329 282M335 282L336 283L335 282M339 282L340 283L339 282M111.333 283.667C111.278 283.722 111.222 284.778 111.667 284.333C111.722 284.278 111.778 283.222 111.333 283.667M324 283L325 284L324 283M337 283L338 284L337 283M113 284L114 285L113 284M326 284L327 285L326 284M335 284L336 285L335 284z"/>
</svg>
